<mxfile host="app.diagrams.net" modified="2023-11-19T16:55:04.323Z" agent="Mozilla/5.0 (Windows NT 10.0; Win64; x64) AppleWebKit/537.36 (KHTML, like Gecko) Chrome/119.0.0.0 Safari/537.36" etag="dpraQH294S-AbCkPZ-5s" version="22.1.3" type="github">
  <diagram name="Pagina-1" id="6jVV9uchFTwSkhsVn8Fx">
    <mxGraphModel dx="1839" dy="1639" grid="0" gridSize="10" guides="1" tooltips="1" connect="1" arrows="1" fold="1" page="1" pageScale="1" pageWidth="850" pageHeight="1100" math="0" shadow="0">
      <root>
        <mxCell id="0" />
        <mxCell id="1" parent="0" />
        <mxCell id="OS-Ou4QBS4Z1JC2cFNdL-1" value="RuleSubject" style="swimlane;fontStyle=1;align=center;verticalAlign=top;childLayout=stackLayout;horizontal=1;startSize=26;horizontalStack=0;resizeParent=1;resizeParentMax=0;resizeLast=0;collapsible=1;marginBottom=0;whiteSpace=wrap;html=1;" parent="1" vertex="1">
          <mxGeometry x="1019" y="-235" width="180" height="124" as="geometry" />
        </mxCell>
        <mxCell id="QtcY73wGl3AwhHtSpQkw-2" value="&lt;div style=&quot;&quot;&gt;&lt;span style=&quot;background-color: initial;&quot;&gt;&amp;nbsp; -&amp;nbsp;&lt;/span&gt;&lt;b style=&quot;background-color: initial; border-color: var(--border-color);&quot;&gt;observer&lt;/b&gt;&lt;span style=&quot;background-color: initial;&quot;&gt;: RuleObsever&amp;nbsp;&lt;/span&gt;&lt;/div&gt;" style="text;html=1;align=left;verticalAlign=middle;resizable=0;points=[];autosize=1;strokeColor=none;fillColor=none;" parent="OS-Ou4QBS4Z1JC2cFNdL-1" vertex="1">
          <mxGeometry y="26" width="180" height="26" as="geometry" />
        </mxCell>
        <mxCell id="OS-Ou4QBS4Z1JC2cFNdL-3" value="" style="line;strokeWidth=1;fillColor=none;align=left;verticalAlign=middle;spacingTop=-1;spacingLeft=3;spacingRight=3;rotatable=0;labelPosition=right;points=[];portConstraint=eastwest;strokeColor=inherit;" parent="OS-Ou4QBS4Z1JC2cFNdL-1" vertex="1">
          <mxGeometry y="52" width="180" height="14" as="geometry" />
        </mxCell>
        <mxCell id="OS-Ou4QBS4Z1JC2cFNdL-4" value="+ &lt;b&gt;attach&lt;/b&gt;(RuleObserver):void&lt;br&gt;+ &lt;b&gt;detach&lt;/b&gt;(RuleObserver):void&lt;br&gt;+ &lt;b&gt;notify&lt;/b&gt;():void" style="text;strokeColor=none;fillColor=none;align=left;verticalAlign=top;spacingLeft=4;spacingRight=4;overflow=hidden;rotatable=0;points=[[0,0.5],[1,0.5]];portConstraint=eastwest;whiteSpace=wrap;html=1;labelBackgroundColor=default;" parent="OS-Ou4QBS4Z1JC2cFNdL-1" vertex="1">
          <mxGeometry y="66" width="180" height="58" as="geometry" />
        </mxCell>
        <mxCell id="OS-Ou4QBS4Z1JC2cFNdL-6" value="Rule" style="swimlane;fontStyle=1;align=center;verticalAlign=top;childLayout=stackLayout;horizontal=1;startSize=26;horizontalStack=0;resizeParent=1;resizeParentMax=0;resizeLast=0;collapsible=1;marginBottom=0;whiteSpace=wrap;html=1;labelBackgroundColor=none;" parent="1" vertex="1">
          <mxGeometry x="879" y="-30" width="409" height="322" as="geometry" />
        </mxCell>
        <mxCell id="OS-Ou4QBS4Z1JC2cFNdL-7" value="&lt;div&gt;&lt;b&gt;- ruleName: String&lt;br&gt;- trigger: &lt;/b&gt;Trigger&lt;/div&gt;&lt;div&gt;&lt;b&gt;- action: &lt;/b&gt;List &amp;lt;Action&amp;gt;&lt;/div&gt;&lt;div&gt;&lt;b&gt;- isActive: &lt;/b&gt;boolean&lt;/div&gt;&lt;div&gt;&lt;b&gt;- isOneTimeTrigger:&amp;nbsp;&lt;/b&gt;boolean&lt;/div&gt;&lt;div&gt;&lt;b&gt;- triggerTime: &lt;/b&gt;Time&lt;/div&gt;&lt;div&gt;&lt;b&gt;- ruleState : &lt;/b&gt;State&lt;/div&gt;&lt;div&gt;&lt;br&gt;&lt;/div&gt;&lt;div&gt;&amp;nbsp;&lt;/div&gt;" style="text;strokeColor=none;fillColor=none;align=left;verticalAlign=top;spacingLeft=4;spacingRight=4;overflow=hidden;rotatable=0;points=[[0,0.5],[1,0.5]];portConstraint=eastwest;whiteSpace=wrap;html=1;labelBackgroundColor=none;" parent="OS-Ou4QBS4Z1JC2cFNdL-6" vertex="1">
          <mxGeometry y="26" width="409" height="109" as="geometry" />
        </mxCell>
        <mxCell id="OS-Ou4QBS4Z1JC2cFNdL-8" value="" style="line;strokeWidth=1;fillColor=none;align=left;verticalAlign=middle;spacingTop=-1;spacingLeft=3;spacingRight=3;rotatable=0;labelPosition=right;points=[];portConstraint=eastwest;strokeColor=inherit;labelBackgroundColor=none;" parent="OS-Ou4QBS4Z1JC2cFNdL-6" vertex="1">
          <mxGeometry y="135" width="409" height="8" as="geometry" />
        </mxCell>
        <mxCell id="OS-Ou4QBS4Z1JC2cFNdL-9" value="&lt;div&gt;+ &lt;b&gt;Rule&lt;/b&gt;(trigger: TriggerComponent, actions: List&amp;lt;Action&amp;gt;)&lt;/div&gt;&lt;div&gt;+ &lt;b&gt;modifyRule&lt;/b&gt;(trigger: TriggerComponent, actions:List&amp;lt;Action&amp;gt;): void&lt;/div&gt;&lt;div&gt;+ &lt;b&gt;modifyName&lt;/b&gt;(newName: String): void&lt;/div&gt;&lt;div&gt;+ &lt;b&gt;modifyTrigger(&lt;/b&gt;trigger: newTrigger&lt;b&gt;): &lt;/b&gt;void&lt;/div&gt;&lt;div&gt;+ &lt;b&gt;addAction&lt;/b&gt;(action: Action): void&lt;/div&gt;&lt;div&gt;+ &lt;b&gt;removeAction&lt;/b&gt;(action: Action): void&lt;/div&gt;&lt;div&gt;+ &lt;b&gt;setTriggeredOnce&lt;/b&gt;(isTriggeredOnce: boolean): void&lt;/div&gt;&lt;div&gt;+ &lt;b&gt;setTimeDelay&lt;/b&gt;(timeDelay: int): void&lt;/div&gt;&lt;div&gt;+ &lt;b&gt;isTriggeredOnce&lt;/b&gt;(): boolean&lt;/div&gt;&lt;div&gt;+ &lt;b&gt;getState &lt;/b&gt;(): State&lt;/div&gt;&lt;div&gt;+ &lt;b&gt;setState &lt;/b&gt;(State): void&lt;/div&gt;" style="text;strokeColor=none;fillColor=none;align=left;verticalAlign=top;spacingLeft=4;spacingRight=4;overflow=hidden;rotatable=0;points=[[0,0.5],[1,0.5]];portConstraint=eastwest;whiteSpace=wrap;html=1;labelBackgroundColor=none;" parent="OS-Ou4QBS4Z1JC2cFNdL-6" vertex="1">
          <mxGeometry y="143" width="409" height="179" as="geometry" />
        </mxCell>
        <mxCell id="OS-Ou4QBS4Z1JC2cFNdL-10" value="&lt;p style=&quot;margin:0px;margin-top:4px;text-align:center;&quot;&gt;&lt;i&gt;&amp;lt;&amp;lt;Interface&amp;gt;&amp;gt;&lt;/i&gt;&lt;br&gt;&lt;b&gt;RuleObserver&lt;/b&gt;&lt;/p&gt;&lt;hr size=&quot;1&quot;&gt;&lt;p style=&quot;margin:0px;margin-left:4px;&quot;&gt;+ &lt;b&gt;updateRule&lt;/b&gt;():void&lt;br&gt;&lt;/p&gt;" style="verticalAlign=top;align=left;overflow=fill;fontSize=12;fontFamily=Helvetica;html=1;whiteSpace=wrap;rotation=0;" parent="1" vertex="1">
          <mxGeometry x="1460" y="-208" width="190" height="66" as="geometry" />
        </mxCell>
        <mxCell id="OS-Ou4QBS4Z1JC2cFNdL-11" value="RuleManager" style="swimlane;fontStyle=1;align=center;verticalAlign=top;childLayout=stackLayout;horizontal=1;startSize=26;horizontalStack=0;resizeParent=1;resizeParentMax=0;resizeLast=0;collapsible=1;marginBottom=0;whiteSpace=wrap;html=1;" parent="1" vertex="1">
          <mxGeometry x="1405" y="-3" width="305" height="185" as="geometry" />
        </mxCell>
        <mxCell id="OS-Ou4QBS4Z1JC2cFNdL-13" value="" style="line;strokeWidth=1;fillColor=none;align=left;verticalAlign=middle;spacingTop=-1;spacingLeft=3;spacingRight=3;rotatable=0;labelPosition=right;points=[];portConstraint=eastwest;strokeColor=inherit;" parent="OS-Ou4QBS4Z1JC2cFNdL-11" vertex="1">
          <mxGeometry y="26" width="305" height="8" as="geometry" />
        </mxCell>
        <mxCell id="OS-Ou4QBS4Z1JC2cFNdL-12" value="- &lt;b&gt;istance&lt;/b&gt;: RuleManager&lt;br&gt;- &lt;b&gt;ruleList&lt;/b&gt;: List&amp;lt;Rule&amp;gt;" style="text;strokeColor=none;fillColor=none;align=left;verticalAlign=top;spacingLeft=4;spacingRight=4;overflow=hidden;rotatable=0;points=[[0,0.5],[1,0.5]];portConstraint=eastwest;whiteSpace=wrap;html=1;" parent="OS-Ou4QBS4Z1JC2cFNdL-11" vertex="1">
          <mxGeometry y="34" width="305" height="38" as="geometry" />
        </mxCell>
        <mxCell id="OS-Ou4QBS4Z1JC2cFNdL-14" value="&lt;div&gt;+ &lt;b&gt;getInstance()&lt;/b&gt;: RuleManager&lt;/div&gt;&lt;div&gt;+ &lt;b&gt;addRule&lt;/b&gt;(rule: Rule): void&lt;/div&gt;&lt;div&gt;+ &lt;b&gt;removeRule&lt;/b&gt;(rule: Rule): void&lt;/div&gt;&lt;div&gt;+ &lt;b&gt;executeRule&lt;/b&gt;s(): void&lt;/div&gt;&lt;div&gt;+ &lt;b&gt;saveRulesToFile&lt;/b&gt;(fileName: String): void&lt;/div&gt;&lt;div&gt;+ &lt;b&gt;loadRulesFromFile&lt;/b&gt;(fileName: String): void&lt;/div&gt;&lt;div&gt;+ &lt;b&gt;updateRule(&lt;/b&gt;rule: Rule): void&lt;/div&gt;" style="text;strokeColor=none;fillColor=none;align=left;verticalAlign=top;spacingLeft=4;spacingRight=4;overflow=hidden;rotatable=0;points=[[0,0.5],[1,0.5]];portConstraint=eastwest;whiteSpace=wrap;html=1;" parent="OS-Ou4QBS4Z1JC2cFNdL-11" vertex="1">
          <mxGeometry y="72" width="305" height="113" as="geometry" />
        </mxCell>
        <mxCell id="1EWZOVvbNaI_VQ29JEXc-3" value="&lt;p style=&quot;margin:0px;margin-top:4px;text-align:center;&quot;&gt;&lt;i&gt;&amp;lt;&amp;lt;Interface&amp;gt;&amp;gt;&lt;/i&gt;&lt;br&gt;&lt;b&gt;Trigger&lt;/b&gt;&lt;/p&gt;&lt;hr size=&quot;1&quot;&gt;&lt;p style=&quot;margin:0px;margin-left:4px;&quot;&gt;+ &lt;b&gt;checkTrigger&lt;/b&gt;():boolean&lt;br style=&quot;border-color: var(--border-color);&quot;&gt;&lt;/p&gt;&lt;hr size=&quot;1&quot;&gt;&lt;p style=&quot;margin:0px;margin-left:4px;&quot;&gt;&lt;br&gt;&lt;/p&gt;" style="verticalAlign=top;align=left;overflow=fill;fontSize=12;fontFamily=Helvetica;html=1;whiteSpace=wrap;" parent="1" vertex="1">
          <mxGeometry x="558" y="400" width="190" height="68" as="geometry" />
        </mxCell>
        <mxCell id="1EWZOVvbNaI_VQ29JEXc-4" value="&lt;p style=&quot;margin:0px;margin-top:4px;text-align:center;&quot;&gt;&lt;b&gt;TriggerComposite&lt;/b&gt;&lt;/p&gt;&lt;hr size=&quot;1&quot;&gt;&lt;p style=&quot;margin:0px;margin-left:4px;&quot;&gt;- &lt;b&gt;triggers&lt;/b&gt;: List&amp;lt;Trigger&amp;gt;&lt;/p&gt;&lt;hr size=&quot;1&quot;&gt;&lt;p style=&quot;margin:0px;margin-left:4px;&quot;&gt;+&amp;nbsp;&lt;b&gt;checkTrigger&lt;/b&gt;(): boolean&lt;br&gt;&lt;span style=&quot;background-color: initial;&quot;&gt;+&amp;nbsp;&lt;b&gt;addTrigger&lt;/b&gt;(trigger: Trigger): void&lt;/span&gt;&lt;/p&gt;&lt;p style=&quot;margin:0px;margin-left:4px;&quot;&gt;+&amp;nbsp;&lt;b&gt;removeTrigger&lt;/b&gt;(trigger: Trigger): void&lt;/p&gt;&lt;p style=&quot;margin:0px;margin-left:4px;&quot;&gt;&lt;br&gt;&lt;/p&gt;" style="verticalAlign=top;align=left;overflow=fill;fontSize=12;fontFamily=Helvetica;html=1;whiteSpace=wrap;" parent="1" vertex="1">
          <mxGeometry x="33" y="510" width="222" height="114" as="geometry" />
        </mxCell>
        <mxCell id="1EWZOVvbNaI_VQ29JEXc-9" value="&lt;p style=&quot;margin:0px;margin-top:4px;text-align:center;&quot;&gt;&lt;b&gt;HourOfDayTrigger&lt;/b&gt;&lt;/p&gt;&lt;hr size=&quot;1&quot;&gt;&lt;p style=&quot;margin:0px;margin-left:4px;&quot;&gt;- &lt;b&gt;targetTime&lt;/b&gt;:LocalTime&lt;/p&gt;&lt;hr size=&quot;1&quot;&gt;&lt;p style=&quot;margin:0px;margin-left:4px;&quot;&gt;+&amp;nbsp;&lt;b&gt;HourOfDayTrigger&lt;/b&gt;(hour: int, min: int)&lt;br&gt;+ &lt;b&gt;checkTrigger&lt;/b&gt;():boolean&lt;br&gt;&lt;/p&gt;" style="verticalAlign=top;align=left;overflow=fill;fontSize=12;fontFamily=Helvetica;html=1;whiteSpace=wrap;" parent="1" vertex="1">
          <mxGeometry x="497" y="-11" width="224" height="90" as="geometry" />
        </mxCell>
        <mxCell id="1EWZOVvbNaI_VQ29JEXc-11" value="&lt;p style=&quot;margin:0px;margin-top:4px;text-align:center;&quot;&gt;&lt;b&gt;DayOfWeekTrigger&lt;/b&gt;&lt;/p&gt;&lt;hr size=&quot;1&quot;&gt;&lt;p style=&quot;margin:0px;margin-left:4px;&quot;&gt;- &lt;b&gt;targetDayOfWeek&lt;/b&gt;: String&lt;/p&gt;&lt;hr size=&quot;1&quot;&gt;&lt;p style=&quot;margin:0px;margin-left:4px;&quot;&gt;+&amp;nbsp;&lt;b style=&quot;border-color: var(--border-color); text-align: center;&quot;&gt;DayOfWeekTrigger&lt;/b&gt;&lt;span style=&quot;background-color: initial;&quot;&gt;(dayOfWeek: String)&lt;/span&gt;&lt;/p&gt;&lt;div&gt;&amp;nbsp;+ &lt;b&gt;checkTrigger&lt;/b&gt;():boolean&lt;br&gt;&lt;/div&gt;" style="verticalAlign=top;align=left;overflow=fill;fontSize=12;fontFamily=Helvetica;html=1;whiteSpace=wrap;" parent="1" vertex="1">
          <mxGeometry x="626" y="193" width="233" height="104" as="geometry" />
        </mxCell>
        <mxCell id="1EWZOVvbNaI_VQ29JEXc-13" value="&lt;p style=&quot;margin:0px;margin-top:4px;text-align:center;&quot;&gt;&lt;b&gt;DayOfMonthTrigger&lt;/b&gt;&lt;/p&gt;&lt;hr size=&quot;1&quot;&gt;&lt;p style=&quot;margin:0px;margin-left:4px;&quot;&gt;- &lt;b&gt;targetDayOfMonth&lt;/b&gt;: int&lt;/p&gt;&lt;hr size=&quot;1&quot;&gt;&lt;p style=&quot;margin:0px;margin-left:4px;&quot;&gt;+&amp;nbsp;&lt;b style=&quot;border-color: var(--border-color); text-align: center;&quot;&gt;DayOfMonthTrigger&lt;/b&gt;&lt;span style=&quot;background-color: initial;&quot;&gt;(dayOfMont: int)&lt;/span&gt;&lt;/p&gt;&lt;div&gt;&amp;nbsp;+ &lt;b&gt;checkTrigger&lt;/b&gt;():boolean&lt;br&gt;&lt;/div&gt;" style="verticalAlign=top;align=left;overflow=fill;fontSize=12;fontFamily=Helvetica;html=1;whiteSpace=wrap;" parent="1" vertex="1">
          <mxGeometry x="863" y="438" width="220" height="104" as="geometry" />
        </mxCell>
        <mxCell id="1EWZOVvbNaI_VQ29JEXc-14" value="&lt;p style=&quot;margin:0px;margin-top:4px;text-align:center;&quot;&gt;&lt;b&gt;DateTrigger&lt;/b&gt;&lt;/p&gt;&lt;hr size=&quot;1&quot;&gt;&lt;p style=&quot;margin:0px;margin-left:4px;&quot;&gt;- &lt;b&gt;targetDay&lt;/b&gt;: String&lt;/p&gt;&lt;hr size=&quot;1&quot;&gt;&lt;p style=&quot;margin:0px;margin-left:4px;&quot;&gt;+&lt;b style=&quot;border-color: var(--border-color); text-align: center;&quot;&gt;DateTrigger&lt;/b&gt;&lt;span style=&quot;background-color: initial;&quot;&gt;(date: String)&lt;/span&gt;&lt;/p&gt;&lt;div&gt;&amp;nbsp;+ &lt;b&gt;checkTrigger&lt;/b&gt;():boolean&lt;br&gt;&lt;/div&gt;" style="verticalAlign=top;align=left;overflow=fill;fontSize=12;fontFamily=Helvetica;html=1;whiteSpace=wrap;" parent="1" vertex="1">
          <mxGeometry x="33" y="147" width="179" height="104" as="geometry" />
        </mxCell>
        <mxCell id="1EWZOVvbNaI_VQ29JEXc-16" value="&lt;p style=&quot;margin:0px;margin-top:4px;text-align:center;&quot;&gt;&lt;b&gt;FileDirectoryTrigger&lt;/b&gt;&lt;/p&gt;&lt;hr size=&quot;1&quot;&gt;&lt;p style=&quot;margin:0px;margin-left:4px;&quot;&gt;- &lt;b&gt;targetFileName&lt;/b&gt;: String&lt;/p&gt;&lt;p style=&quot;margin:0px;margin-left:4px;&quot;&gt;- &lt;b&gt;targetDirectory&lt;/b&gt;: String&lt;/p&gt;&lt;hr size=&quot;1&quot;&gt;&lt;p style=&quot;margin:0px;margin-left:4px;&quot;&gt;+&amp;nbsp;&lt;b style=&quot;border-color: var(--border-color); text-align: center;&quot;&gt;FileTrigger&lt;/b&gt;&lt;span style=&quot;background-color: initial;&quot;&gt;(fileName: String, directory: String)&lt;/span&gt;&lt;/p&gt;&lt;div&gt;&amp;nbsp;+&amp;nbsp;&lt;b&gt;checkTrigger&lt;/b&gt;():boolean&lt;br&gt;&lt;/div&gt;" style="verticalAlign=top;align=left;overflow=fill;fontSize=12;fontFamily=Helvetica;html=1;whiteSpace=wrap;" parent="1" vertex="1">
          <mxGeometry x="245" y="649" width="272" height="104" as="geometry" />
        </mxCell>
        <mxCell id="1EWZOVvbNaI_VQ29JEXc-17" value="&lt;p style=&quot;margin:0px;margin-top:4px;text-align:center;&quot;&gt;&lt;b&gt;FileSizeTrigger&lt;/b&gt;&lt;/p&gt;&lt;hr size=&quot;1&quot;&gt;&lt;p style=&quot;margin:0px;margin-left:4px;&quot;&gt;-&amp;nbsp;&lt;b&gt;targetFilePath&lt;/b&gt;: String&lt;/p&gt;&lt;p style=&quot;margin:0px;margin-left:4px;&quot;&gt;-&amp;nbsp;&lt;b&gt;targetSize&lt;/b&gt;: long&lt;/p&gt;&lt;hr size=&quot;1&quot;&gt;&lt;p style=&quot;margin:0px;margin-left:4px;&quot;&gt;+&amp;nbsp;&lt;b style=&quot;border-color: var(--border-color); text-align: center;&quot;&gt;FileSizeTrigger&lt;/b&gt;&lt;span style=&quot;background-color: initial;&quot;&gt;(filePath: String, size: long)&lt;/span&gt;&lt;/p&gt;&lt;div&gt;&amp;nbsp;+ &lt;b&gt;checkTrigger&lt;/b&gt;():boolean&lt;br&gt;&lt;/div&gt;" style="verticalAlign=top;align=left;overflow=fill;fontSize=12;fontFamily=Helvetica;html=1;whiteSpace=wrap;" parent="1" vertex="1">
          <mxGeometry x="-6.5" y="323" width="263.5" height="104" as="geometry" />
        </mxCell>
        <mxCell id="1EWZOVvbNaI_VQ29JEXc-18" value="&lt;p style=&quot;margin:0px;margin-top:4px;text-align:center;&quot;&gt;&lt;b&gt;ExternalProgrammTrigger&lt;/b&gt;&lt;/p&gt;&lt;hr size=&quot;1&quot;&gt;&lt;p style=&quot;margin:0px;margin-left:4px;&quot;&gt;- &lt;b&gt;targetCommandLine&lt;/b&gt;: String&lt;/p&gt;&lt;p style=&quot;margin:0px;margin-left:4px;&quot;&gt;- &lt;b&gt;targetExitValue&lt;/b&gt;: int&lt;/p&gt;&lt;hr size=&quot;1&quot;&gt;&lt;p style=&quot;margin:0px;margin-left:4px;&quot;&gt;+&amp;nbsp;&lt;b style=&quot;border-color: var(--border-color); text-align: center;&quot;&gt;ExternalProgrammTrigger&amp;nbsp;&lt;/b&gt;&lt;span style=&quot;background-color: initial;&quot;&gt;(commandLine: String, exitValue: long)&lt;/span&gt;&lt;/p&gt;&lt;div&gt;&amp;nbsp;+ &lt;b&gt;checkTrigger&lt;/b&gt;():boolean&lt;br&gt;&lt;/div&gt;" style="verticalAlign=top;align=left;overflow=fill;fontSize=12;fontFamily=Helvetica;html=1;whiteSpace=wrap;" parent="1" vertex="1">
          <mxGeometry x="59" y="-19" width="375" height="118" as="geometry" />
        </mxCell>
        <mxCell id="1EWZOVvbNaI_VQ29JEXc-19" value="&lt;p style=&quot;margin:0px;margin-top:4px;text-align:center;&quot;&gt;&lt;i&gt;&amp;lt;&amp;lt;Interface&amp;gt;&amp;gt;&lt;/i&gt;&lt;br&gt;&lt;b&gt;Action&lt;/b&gt;&lt;/p&gt;&lt;hr size=&quot;1&quot;&gt;&lt;p style=&quot;margin:0px;margin-left:4px;&quot;&gt;+ &lt;b&gt;executeAction&lt;/b&gt;(): Void&lt;br&gt;&lt;/p&gt;&lt;hr size=&quot;1&quot;&gt;&lt;p style=&quot;margin:0px;margin-left:4px;&quot;&gt;&lt;br&gt;&lt;/p&gt;" style="verticalAlign=top;align=left;overflow=fill;fontSize=12;fontFamily=Helvetica;html=1;whiteSpace=wrap;" parent="1" vertex="1">
          <mxGeometry x="1408" y="456" width="190" height="68" as="geometry" />
        </mxCell>
        <mxCell id="1EWZOVvbNaI_VQ29JEXc-21" value="&lt;p style=&quot;margin:0px;margin-top:4px;text-align:center;&quot;&gt;&lt;b&gt;AudioAction&lt;/b&gt;&lt;/p&gt;&lt;hr size=&quot;1&quot;&gt;&lt;p style=&quot;margin:0px;margin-left:4px;&quot;&gt;- &lt;b&gt;fileAudioPath&lt;/b&gt;: String&lt;/p&gt;&lt;hr size=&quot;1&quot;&gt;&lt;p style=&quot;margin:0px;margin-left:4px;&quot;&gt;+ &lt;b&gt;AudioAction&lt;/b&gt;(String: filePath)&lt;br&gt;+&amp;nbsp; &lt;b&gt;execute&lt;/b&gt;(): void&lt;br&gt;&lt;/p&gt;" style="verticalAlign=top;align=left;overflow=fill;fontSize=12;fontFamily=Helvetica;html=1;whiteSpace=wrap;" parent="1" vertex="1">
          <mxGeometry x="1135" y="472" width="196" height="124" as="geometry" />
        </mxCell>
        <mxCell id="1EWZOVvbNaI_VQ29JEXc-22" value="&lt;p style=&quot;margin:0px;margin-top:4px;text-align:center;&quot;&gt;&lt;b&gt;DialogBoxAction&lt;/b&gt;&lt;/p&gt;&lt;hr size=&quot;1&quot;&gt;&lt;p style=&quot;margin:0px;margin-left:4px;&quot;&gt;- &lt;b&gt;message&lt;/b&gt;: String&lt;/p&gt;&lt;hr size=&quot;1&quot;&gt;&lt;p style=&quot;margin:0px;margin-left:4px;&quot;&gt;+&amp;nbsp;&lt;b&gt;DialogBoxAction&lt;/b&gt;(String message)&lt;/p&gt;&lt;p style=&quot;margin:0px;margin-left:4px;&quot;&gt;+&amp;nbsp;&amp;nbsp;&lt;b&gt;execute&lt;/b&gt;(): void&lt;br&gt;&lt;/p&gt;" style="verticalAlign=top;align=left;overflow=fill;fontSize=12;fontFamily=Helvetica;html=1;whiteSpace=wrap;" parent="1" vertex="1">
          <mxGeometry x="1377" y="783" width="403" height="124" as="geometry" />
        </mxCell>
        <mxCell id="1EWZOVvbNaI_VQ29JEXc-25" value="&lt;p style=&quot;margin:0px;margin-top:4px;text-align:center;&quot;&gt;&lt;b&gt;ExternalProgramAction&lt;/b&gt;&lt;/p&gt;&lt;hr size=&quot;1&quot;&gt;&lt;p style=&quot;margin:0px;margin-left:4px;&quot;&gt;-&amp;nbsp;&lt;b&gt;programPath&lt;/b&gt;: String&lt;/p&gt;&lt;p style=&quot;margin:0px;margin-left:4px;&quot;&gt;- &lt;b&gt;commandLineArgs&lt;/b&gt;: String[]&lt;/p&gt;&lt;hr size=&quot;1&quot;&gt;&lt;p style=&quot;margin:0px;margin-left:4px;&quot;&gt;+ &lt;b&gt;ExternalProgramAction&lt;/b&gt;(String: programPath, String[]: commandLineArgs)&lt;br&gt;+&amp;nbsp; &lt;b&gt;execute&lt;/b&gt;(): void&lt;br&gt;&lt;/p&gt;" style="verticalAlign=top;align=left;overflow=fill;fontSize=12;fontFamily=Helvetica;html=1;whiteSpace=wrap;" parent="1" vertex="1">
          <mxGeometry x="1453" y="257" width="443" height="124" as="geometry" />
        </mxCell>
        <mxCell id="1EWZOVvbNaI_VQ29JEXc-27" value="&lt;p style=&quot;margin:0px;margin-top:4px;text-align:center;&quot;&gt;&lt;b&gt;WriteStringOnFileAction&lt;/b&gt;&lt;/p&gt;&lt;hr size=&quot;1&quot;&gt;&lt;p style=&quot;margin:0px;margin-left:4px;&quot;&gt;- &lt;b&gt;stringToWrite&lt;/b&gt;: String&lt;/p&gt;&lt;p style=&quot;margin:0px;margin-left:4px;&quot;&gt;- &lt;b&gt;targetFilePath&lt;/b&gt;: String&lt;/p&gt;&lt;hr size=&quot;1&quot;&gt;&lt;p style=&quot;margin:0px;margin-left:4px;&quot;&gt;+&amp;nbsp;&lt;b style=&quot;text-align: center; background-color: initial;&quot;&gt;WriteStringOnFileAction&lt;/b&gt;&lt;span style=&quot;text-align: center; background-color: initial;&quot;&gt;(String msg, String filePath)&lt;/span&gt;&lt;/p&gt;&lt;p style=&quot;margin:0px;margin-left:4px;&quot;&gt;+ &lt;b&gt;execute&lt;/b&gt;(): void&lt;br&gt;&lt;/p&gt;" style="verticalAlign=top;align=left;overflow=fill;fontSize=12;fontFamily=Helvetica;html=1;whiteSpace=wrap;" parent="1" vertex="1">
          <mxGeometry x="1931" y="325" width="326" height="116" as="geometry" />
        </mxCell>
        <mxCell id="1EWZOVvbNaI_VQ29JEXc-28" value="&lt;p style=&quot;margin:0px;margin-top:4px;text-align:center;&quot;&gt;&lt;b&gt;DeleteFIleAction&lt;/b&gt;&lt;/p&gt;&lt;hr size=&quot;1&quot;&gt;&lt;p style=&quot;margin:0px;margin-left:4px;&quot;&gt;- &lt;b&gt;targetdirectory&lt;/b&gt;: String&lt;/p&gt;&lt;p style=&quot;margin:0px;margin-left:4px;&quot;&gt;- &lt;b&gt;targetFileName&lt;/b&gt;: String&lt;/p&gt;&lt;hr size=&quot;1&quot;&gt;&lt;p style=&quot;margin:0px;margin-left:4px;&quot;&gt;+&amp;nbsp;&lt;b style=&quot;border-color: var(--border-color); text-align: center;&quot;&gt;DeleteFIleAction&lt;/b&gt;(String: fileName, String: directory)&lt;br&gt;+ &lt;b&gt;execute&lt;/b&gt;(): void&lt;br&gt;&lt;/p&gt;" style="verticalAlign=top;align=left;overflow=fill;fontSize=12;fontFamily=Helvetica;html=1;whiteSpace=wrap;" parent="1" vertex="1">
          <mxGeometry x="1146" y="637" width="310" height="124" as="geometry" />
        </mxCell>
        <mxCell id="1EWZOVvbNaI_VQ29JEXc-29" value="&lt;p style=&quot;margin:0px;margin-top:4px;text-align:center;&quot;&gt;&lt;b&gt;MoveCopyFileAction&lt;/b&gt;&lt;/p&gt;&lt;hr size=&quot;1&quot;&gt;&lt;p style=&quot;margin:0px;margin-left:4px;&quot;&gt;- &lt;b&gt;operation&lt;/b&gt;:OperationFileType&lt;br&gt;- &lt;b&gt;targetdirectory&lt;/b&gt;: String&lt;/p&gt;&lt;p style=&quot;margin:0px;margin-left:4px;&quot;&gt;- &lt;b&gt;targetFileName&lt;/b&gt;: String&lt;br&gt;&lt;/p&gt;&lt;p style=&quot;margin:0px;margin-left:4px;&quot;&gt;- &lt;b&gt;destinationDirectory&lt;/b&gt;: String&lt;/p&gt;&lt;p style=&quot;margin:0px;margin-left:4px;&quot;&gt;&lt;br&gt;&lt;/p&gt;&lt;hr size=&quot;1&quot;&gt;&lt;p style=&quot;margin:0px;margin-left:4px;&quot;&gt;+&amp;nbsp;&lt;b style=&quot;border-color: var(--border-color); text-align: center;&quot;&gt;MoveCopyFileActionAction&amp;nbsp;&lt;/b&gt;&lt;span style=&quot;background-color: initial;&quot;&gt;(OperationFileType: operation, String: fileName, String: targetDirectory, String: destinationDirectory)&lt;/span&gt;&lt;/p&gt;&lt;div&gt;&amp;nbsp;+ &lt;b&gt;execute&lt;/b&gt;(): void&lt;br&gt;&lt;/div&gt;" style="verticalAlign=top;align=left;overflow=fill;fontSize=12;fontFamily=Helvetica;html=1;whiteSpace=wrap;" parent="1" vertex="1">
          <mxGeometry x="1790" y="694" width="711" height="160" as="geometry" />
        </mxCell>
        <mxCell id="XiT6eA-BP94YaVYVDS5J-1" value="&lt;p style=&quot;margin:0px;margin-top:4px;text-align:center;&quot;&gt;&lt;b&gt;MapCounter&lt;/b&gt;&lt;/p&gt;&lt;hr size=&quot;1&quot;&gt;&lt;p style=&quot;margin:0px;margin-left:4px;&quot;&gt;- &lt;b&gt;instance&lt;/b&gt;: MapCounter&lt;br&gt;-&amp;nbsp;&lt;b&gt;counters&lt;/b&gt;: Map&amp;lt;String, Integer&amp;gt;&lt;br&gt;&lt;/p&gt;&lt;hr size=&quot;1&quot;&gt;&lt;p style=&quot;margin:0px;margin-left:4px;&quot;&gt;-&amp;nbsp;&lt;b&gt;MapCounter&lt;/b&gt;()&lt;br&gt;&lt;/p&gt;&lt;p style=&quot;margin:0px;margin-left:4px;&quot;&gt;+&amp;nbsp;&lt;b style=&quot;border-color: var(--border-color);&quot;&gt;getInstance&lt;/b&gt;(): MapCounter&lt;br&gt;&lt;/p&gt;&lt;p style=&quot;margin:0px;margin-left:4px;&quot;&gt;+ &lt;b&gt;createCounter&lt;/b&gt;(name: String, initialValue: int): void&lt;/p&gt;&lt;p style=&quot;margin:0px;margin-left:4px;&quot;&gt;+ &lt;b&gt;getCounterValue&lt;/b&gt;(name: String): int&lt;/p&gt;&lt;p style=&quot;margin:0px;margin-left:4px;&quot;&gt;+&amp;nbsp;&lt;b&gt;setCounterValue&lt;/b&gt;(name: String, value: int): void&lt;/p&gt;&lt;p style=&quot;margin:0px;margin-left:4px;&quot;&gt;+ &lt;b&gt;incrementCounter&lt;/b&gt;(name: String): void&lt;/p&gt;&lt;p style=&quot;margin:0px;margin-left:4px;&quot;&gt;+&amp;nbsp;&lt;b&gt;addValueToCounter&lt;/b&gt;(name: String, value: int): void&lt;/p&gt;&lt;p style=&quot;margin:0px;margin-left:4px;&quot;&gt;+ &lt;b&gt;addCounterValueToCounter&lt;/b&gt;(targetCounter: String, sourceCounter: String): void&lt;/p&gt;&lt;p style=&quot;margin:0px;margin-left:4px;&quot;&gt;&lt;span style=&quot;background-color: initial;&quot;&gt;+&amp;nbsp;&lt;/span&gt;&lt;b style=&quot;background-color: initial; border-color: var(--border-color);&quot;&gt;substituteVariables&lt;/b&gt;&lt;span style=&quot;background-color: initial;&quot;&gt;(String inputString): String&lt;/span&gt;&lt;br&gt;&lt;/p&gt;&lt;p style=&quot;margin:0px;margin-left:4px;&quot;&gt;&lt;br&gt;&lt;/p&gt;&lt;p style=&quot;margin:0px;margin-left:4px;&quot;&gt;&lt;br&gt;&lt;/p&gt;&lt;p style=&quot;margin:0px;margin-left:4px;&quot;&gt;&amp;nbsp;&lt;br&gt;&lt;br&gt;&lt;/p&gt;" style="verticalAlign=top;align=left;overflow=fill;fontSize=12;fontFamily=Helvetica;html=1;whiteSpace=wrap;" parent="1" vertex="1">
          <mxGeometry x="360" y="-364" width="476" height="250" as="geometry" />
        </mxCell>
        <mxCell id="XiT6eA-BP94YaVYVDS5J-2" value="&lt;p style=&quot;margin:0px;margin-top:4px;text-align:center;&quot;&gt;&lt;b&gt;TriggerCounter&lt;/b&gt;&lt;/p&gt;&lt;hr size=&quot;1&quot;&gt;&lt;p style=&quot;margin:0px;margin-left:4px;&quot;&gt;- &lt;b&gt;operation&lt;/b&gt;: OperationType&lt;br&gt;&lt;span style=&quot;background-color: initial;&quot;&gt;- &lt;b&gt;counterName1&lt;/b&gt;: String&lt;/span&gt;&lt;/p&gt;&lt;p style=&quot;margin:0px;margin-left:4px;&quot;&gt;- &lt;b&gt;counterName2&lt;/b&gt;: String&lt;/p&gt;&lt;p style=&quot;margin:0px;margin-left:4px;&quot;&gt;- &lt;b&gt;valueNumber&lt;/b&gt;: int&lt;/p&gt;&lt;hr size=&quot;1&quot;&gt;&lt;p style=&quot;margin:0px;margin-left:4px;&quot;&gt;+ &lt;b&gt;TriggerCounter&lt;/b&gt;(String counterName1, OperationType operation, String counterName2)&lt;/p&gt;&lt;p style=&quot;margin:0px;margin-left:4px;&quot;&gt;+ &lt;b&gt;TriggerCounter&lt;/b&gt;(String counterName1, OperationType operation, int valueNumber)&lt;/p&gt;&lt;p style=&quot;margin:0px;margin-left:4px;&quot;&gt;+ &lt;b&gt;checkTrigger&lt;/b&gt;(): boolean&lt;/p&gt;" style="verticalAlign=top;align=left;overflow=fill;fontSize=12;fontFamily=Helvetica;html=1;whiteSpace=wrap;" parent="1" vertex="1">
          <mxGeometry x="552" y="614" width="485" height="190" as="geometry" />
        </mxCell>
        <mxCell id="XiT6eA-BP94YaVYVDS5J-4" value="&lt;p style=&quot;margin:0px;margin-top:4px;text-align:center;&quot;&gt;&lt;i&gt;&amp;lt;&amp;lt;Enumeration&amp;gt;&amp;gt;&lt;/i&gt;&lt;br&gt;&lt;b&gt;OperationType&lt;/b&gt;&lt;/p&gt;&lt;hr size=&quot;1&quot;&gt;&lt;div style=&quot;height:2px;&quot;&gt;&lt;b&gt;&amp;nbsp;EQUALTO&lt;br&gt;&amp;nbsp;LESSTHAN&lt;br&gt;&amp;nbsp;GREATERTHAN&lt;/b&gt;&lt;/div&gt;" style="verticalAlign=top;align=left;overflow=fill;fontSize=12;fontFamily=Helvetica;html=1;whiteSpace=wrap;" parent="1" vertex="1">
          <mxGeometry x="1881" y="-287" width="140" height="183" as="geometry" />
        </mxCell>
        <mxCell id="XiT6eA-BP94YaVYVDS5J-5" value="&lt;p style=&quot;margin:0px;margin-top:4px;text-align:center;&quot;&gt;&lt;i&gt;&amp;lt;&amp;lt;Enumeration&amp;gt;&amp;gt;&lt;/i&gt;&lt;br&gt;&lt;b&gt;OperationFileType&lt;/b&gt;&lt;/p&gt;&lt;hr size=&quot;1&quot;&gt;&lt;div style=&quot;height:2px;&quot;&gt;&lt;b&gt;&amp;nbsp;MOVE&lt;br&gt;&amp;nbsp;COPY&lt;br&gt;&lt;br&gt;&lt;/b&gt;&lt;/div&gt;" style="verticalAlign=top;align=left;overflow=fill;fontSize=12;fontFamily=Helvetica;html=1;whiteSpace=wrap;" parent="1" vertex="1">
          <mxGeometry x="2062" y="-187" width="140" height="81" as="geometry" />
        </mxCell>
        <mxCell id="XiT6eA-BP94YaVYVDS5J-7" value="&lt;p style=&quot;margin:0px;margin-top:4px;text-align:center;&quot;&gt;&lt;b&gt;CounterAction&lt;/b&gt;&lt;/p&gt;&lt;hr size=&quot;1&quot;&gt;&lt;p style=&quot;margin:0px;margin-left:4px;&quot;&gt;- &lt;b&gt;operation&lt;/b&gt;: CounterActionType&lt;/p&gt;&lt;p style=&quot;margin:0px;margin-left:4px;&quot;&gt;- &lt;b&gt;valueNumber&lt;/b&gt;: int&lt;/p&gt;&lt;p style=&quot;margin:0px;margin-left:4px;&quot;&gt;- &lt;b&gt;counterName1&lt;/b&gt;: String&lt;/p&gt;&lt;p style=&quot;margin:0px;margin-left:4px;&quot;&gt;- &lt;b&gt;counterName2&lt;/b&gt;: String&lt;/p&gt;&lt;p style=&quot;border-color: var(--border-color); margin: 0px 0px 0px 4px;&quot;&gt;&lt;br style=&quot;border-color: var(--border-color);&quot;&gt;&lt;/p&gt;&lt;hr size=&quot;1&quot;&gt;&lt;p style=&quot;margin:0px;margin-left:4px;&quot;&gt;+ &lt;b&gt;CounterAction&lt;/b&gt;(CounterActionType operation, int valueNumber, String counterName1)&lt;/p&gt;&lt;p style=&quot;margin:0px;margin-left:4px;&quot;&gt;+ &lt;b&gt;CounterAction&lt;/b&gt;(String counterName1, String counterName2)&lt;/p&gt;&lt;div&gt;&amp;nbsp;+ &lt;b&gt;execute&lt;/b&gt;(): void&lt;br&gt;&lt;/div&gt;" style="verticalAlign=top;align=left;overflow=fill;fontSize=12;fontFamily=Helvetica;html=1;whiteSpace=wrap;" parent="1" vertex="1">
          <mxGeometry x="1931" y="482" width="484" height="184" as="geometry" />
        </mxCell>
        <mxCell id="XiT6eA-BP94YaVYVDS5J-9" value="&lt;p style=&quot;margin:0px;margin-top:4px;text-align:center;&quot;&gt;&lt;i&gt;&amp;lt;&amp;lt;Enumeration&amp;gt;&amp;gt;&lt;/i&gt;&lt;br&gt;&lt;b&gt;CounterActionType&lt;/b&gt;&lt;/p&gt;&lt;hr size=&quot;1&quot;&gt;&lt;div style=&quot;height:2px;&quot;&gt;&lt;b&gt;&amp;nbsp;SET&lt;br&gt;&amp;nbsp;ADD&lt;br&gt;&lt;br&gt;&lt;/b&gt;&lt;/div&gt;" style="verticalAlign=top;align=left;overflow=fill;fontSize=12;fontFamily=Helvetica;html=1;whiteSpace=wrap;" parent="1" vertex="1">
          <mxGeometry x="2058" y="-291" width="140" height="81" as="geometry" />
        </mxCell>
        <mxCell id="qFEmB10UOR8r2m2RjTvE-13" value="Extends" style="endArrow=block;endSize=16;endFill=0;html=1;rounded=0;" parent="1" edge="1">
          <mxGeometry width="160" relative="1" as="geometry">
            <mxPoint x="1116" y="-34" as="sourcePoint" />
            <mxPoint x="1116" y="-109" as="targetPoint" />
          </mxGeometry>
        </mxCell>
        <mxCell id="qFEmB10UOR8r2m2RjTvE-15" value="" style="endArrow=block;dashed=1;endFill=0;endSize=12;html=1;rounded=0;exitX=0.526;exitY=-0.003;exitDx=0;exitDy=0;exitPerimeter=0;" parent="1" edge="1">
          <mxGeometry width="160" relative="1" as="geometry">
            <mxPoint x="1554.9500000000003" y="-6.554999999999836" as="sourcePoint" />
            <mxPoint x="1554.52" y="-142" as="targetPoint" />
            <Array as="points">
              <mxPoint x="1554.52" y="-75" />
            </Array>
          </mxGeometry>
        </mxCell>
        <mxCell id="qFEmB10UOR8r2m2RjTvE-20" value="" style="endArrow=open;endFill=1;endSize=12;html=1;rounded=0;" parent="1" edge="1">
          <mxGeometry width="160" relative="1" as="geometry">
            <mxPoint x="1298" y="83" as="sourcePoint" />
            <mxPoint x="1402" y="82" as="targetPoint" />
          </mxGeometry>
        </mxCell>
        <mxCell id="qFEmB10UOR8r2m2RjTvE-22" value="" style="endArrow=open;endFill=1;endSize=12;html=1;rounded=0;" parent="1" edge="1">
          <mxGeometry width="160" relative="1" as="geometry">
            <mxPoint x="1199" y="-169" as="sourcePoint" />
            <mxPoint x="1453" y="-170" as="targetPoint" />
          </mxGeometry>
        </mxCell>
        <mxCell id="qFEmB10UOR8r2m2RjTvE-23" value="" style="endArrow=open;endFill=1;endSize=12;html=1;rounded=0;entryX=1;entryY=0;entryDx=0;entryDy=0;exitX=0.401;exitY=1.001;exitDx=0;exitDy=0;exitPerimeter=0;" parent="1" source="OS-Ou4QBS4Z1JC2cFNdL-9" target="1EWZOVvbNaI_VQ29JEXc-3" edge="1">
          <mxGeometry width="160" relative="1" as="geometry">
            <mxPoint x="1073" y="295" as="sourcePoint" />
            <mxPoint x="1177" y="294" as="targetPoint" />
          </mxGeometry>
        </mxCell>
        <mxCell id="qFEmB10UOR8r2m2RjTvE-27" value="" style="endArrow=block;dashed=1;endFill=0;endSize=12;html=1;rounded=0;entryX=0.881;entryY=1.021;entryDx=0;entryDy=0;entryPerimeter=0;" parent="1" target="1EWZOVvbNaI_VQ29JEXc-3" edge="1">
          <mxGeometry width="160" relative="1" as="geometry">
            <mxPoint x="814" y="608" as="sourcePoint" />
            <mxPoint x="912" y="478" as="targetPoint" />
          </mxGeometry>
        </mxCell>
        <mxCell id="qFEmB10UOR8r2m2RjTvE-28" value="" style="endArrow=block;dashed=1;endFill=0;endSize=12;html=1;rounded=0;entryX=1;entryY=0.5;entryDx=0;entryDy=0;" parent="1" target="1EWZOVvbNaI_VQ29JEXc-3" edge="1">
          <mxGeometry width="160" relative="1" as="geometry">
            <mxPoint x="863" y="476" as="sourcePoint" />
            <mxPoint x="758" y="484" as="targetPoint" />
          </mxGeometry>
        </mxCell>
        <mxCell id="qFEmB10UOR8r2m2RjTvE-29" value="" style="endArrow=block;dashed=1;endFill=0;endSize=12;html=1;rounded=0;entryX=0.311;entryY=1;entryDx=0;entryDy=0;entryPerimeter=0;exitX=0.831;exitY=-0.01;exitDx=0;exitDy=0;exitPerimeter=0;" parent="1" source="1EWZOVvbNaI_VQ29JEXc-16" target="1EWZOVvbNaI_VQ29JEXc-3" edge="1">
          <mxGeometry width="160" relative="1" as="geometry">
            <mxPoint x="385" y="603" as="sourcePoint" />
            <mxPoint x="545" y="603" as="targetPoint" />
          </mxGeometry>
        </mxCell>
        <mxCell id="qFEmB10UOR8r2m2RjTvE-31" value="" style="endArrow=block;dashed=1;endFill=0;endSize=12;html=1;rounded=0;entryX=0.002;entryY=0.64;entryDx=0;entryDy=0;entryPerimeter=0;" parent="1" target="1EWZOVvbNaI_VQ29JEXc-3" edge="1">
          <mxGeometry width="160" relative="1" as="geometry">
            <mxPoint x="257" y="393" as="sourcePoint" />
            <mxPoint x="556" y="426" as="targetPoint" />
          </mxGeometry>
        </mxCell>
        <mxCell id="qFEmB10UOR8r2m2RjTvE-32" value="" style="endArrow=block;dashed=1;endFill=0;endSize=12;html=1;rounded=0;" parent="1" edge="1">
          <mxGeometry width="160" relative="1" as="geometry">
            <mxPoint x="212" y="240" as="sourcePoint" />
            <mxPoint x="554" y="411" as="targetPoint" />
          </mxGeometry>
        </mxCell>
        <mxCell id="qFEmB10UOR8r2m2RjTvE-33" value="" style="endArrow=block;dashed=1;endFill=0;endSize=12;html=1;rounded=0;entryX=0.125;entryY=0.017;entryDx=0;entryDy=0;entryPerimeter=0;" parent="1" target="1EWZOVvbNaI_VQ29JEXc-3" edge="1">
          <mxGeometry width="160" relative="1" as="geometry">
            <mxPoint x="252" y="99" as="sourcePoint" />
            <mxPoint x="577" y="399" as="targetPoint" />
          </mxGeometry>
        </mxCell>
        <mxCell id="qFEmB10UOR8r2m2RjTvE-34" value="" style="endArrow=block;dashed=1;endFill=0;endSize=12;html=1;rounded=0;exitX=0.431;exitY=1.063;exitDx=0;exitDy=0;exitPerimeter=0;entryX=0.837;entryY=0;entryDx=0;entryDy=0;entryPerimeter=0;" parent="1" source="1EWZOVvbNaI_VQ29JEXc-11" target="1EWZOVvbNaI_VQ29JEXc-3" edge="1">
          <mxGeometry width="160" relative="1" as="geometry">
            <mxPoint x="621" y="380" as="sourcePoint" />
            <mxPoint x="781" y="380" as="targetPoint" />
          </mxGeometry>
        </mxCell>
        <mxCell id="qFEmB10UOR8r2m2RjTvE-35" value="" style="endArrow=block;dashed=1;endFill=0;endSize=12;html=1;rounded=0;entryX=0.354;entryY=-0.017;entryDx=0;entryDy=0;entryPerimeter=0;exitX=0.132;exitY=0.998;exitDx=0;exitDy=0;exitPerimeter=0;" parent="1" source="1EWZOVvbNaI_VQ29JEXc-9" target="1EWZOVvbNaI_VQ29JEXc-3" edge="1">
          <mxGeometry width="160" relative="1" as="geometry">
            <mxPoint x="458" y="177" as="sourcePoint" />
            <mxPoint x="618" y="177" as="targetPoint" />
          </mxGeometry>
        </mxCell>
        <mxCell id="qFEmB10UOR8r2m2RjTvE-36" value="" style="endArrow=open;endFill=1;endSize=12;html=1;rounded=0;entryX=0.174;entryY=0.04;entryDx=0;entryDy=0;exitX=0.713;exitY=0.998;exitDx=0;exitDy=0;exitPerimeter=0;entryPerimeter=0;" parent="1" target="1EWZOVvbNaI_VQ29JEXc-19" edge="1" source="OS-Ou4QBS4Z1JC2cFNdL-9">
          <mxGeometry width="160" relative="1" as="geometry">
            <mxPoint x="1171" y="257" as="sourcePoint" />
            <mxPoint x="865" y="400" as="targetPoint" />
          </mxGeometry>
        </mxCell>
        <mxCell id="qFEmB10UOR8r2m2RjTvE-37" value="" style="endArrow=block;dashed=1;endFill=0;endSize=12;html=1;rounded=0;entryX=0;entryY=0.75;entryDx=0;entryDy=0;" parent="1" source="1EWZOVvbNaI_VQ29JEXc-21" target="1EWZOVvbNaI_VQ29JEXc-19" edge="1">
          <mxGeometry width="160" relative="1" as="geometry">
            <mxPoint x="1328" y="546" as="sourcePoint" />
            <mxPoint x="1488" y="546" as="targetPoint" />
          </mxGeometry>
        </mxCell>
        <mxCell id="qFEmB10UOR8r2m2RjTvE-38" value="" style="endArrow=block;dashed=1;endFill=0;endSize=12;html=1;rounded=0;exitX=0.75;exitY=0;exitDx=0;exitDy=0;entryX=0.25;entryY=1;entryDx=0;entryDy=0;" parent="1" source="1EWZOVvbNaI_VQ29JEXc-28" target="1EWZOVvbNaI_VQ29JEXc-19" edge="1">
          <mxGeometry width="160" relative="1" as="geometry">
            <mxPoint x="1449" y="578" as="sourcePoint" />
            <mxPoint x="1609" y="578" as="targetPoint" />
          </mxGeometry>
        </mxCell>
        <mxCell id="qFEmB10UOR8r2m2RjTvE-39" value="" style="endArrow=block;dashed=1;endFill=0;endSize=12;html=1;rounded=0;exitX=0.418;exitY=0;exitDx=0;exitDy=0;exitPerimeter=0;entryX=0.708;entryY=1.006;entryDx=0;entryDy=0;entryPerimeter=0;" parent="1" source="1EWZOVvbNaI_VQ29JEXc-22" target="1EWZOVvbNaI_VQ29JEXc-19" edge="1">
          <mxGeometry width="160" relative="1" as="geometry">
            <mxPoint x="1592" y="643" as="sourcePoint" />
            <mxPoint x="1752" y="643" as="targetPoint" />
          </mxGeometry>
        </mxCell>
        <mxCell id="qFEmB10UOR8r2m2RjTvE-40" value="" style="endArrow=block;dashed=1;endFill=0;endSize=12;html=1;rounded=0;exitX=-0.001;exitY=0.172;exitDx=0;exitDy=0;exitPerimeter=0;entryX=0.933;entryY=0.985;entryDx=0;entryDy=0;entryPerimeter=0;" parent="1" source="1EWZOVvbNaI_VQ29JEXc-29" target="1EWZOVvbNaI_VQ29JEXc-19" edge="1">
          <mxGeometry width="160" relative="1" as="geometry">
            <mxPoint x="1508" y="427" as="sourcePoint" />
            <mxPoint x="1668" y="427" as="targetPoint" />
          </mxGeometry>
        </mxCell>
        <mxCell id="qFEmB10UOR8r2m2RjTvE-41" value="" style="endArrow=block;dashed=1;endFill=0;endSize=12;html=1;rounded=0;entryX=0.5;entryY=0;entryDx=0;entryDy=0;" parent="1" target="1EWZOVvbNaI_VQ29JEXc-19" edge="1">
          <mxGeometry width="160" relative="1" as="geometry">
            <mxPoint x="1515" y="380" as="sourcePoint" />
            <mxPoint x="1668" y="349" as="targetPoint" />
          </mxGeometry>
        </mxCell>
        <mxCell id="qFEmB10UOR8r2m2RjTvE-42" value="" style="endArrow=block;dashed=1;endFill=0;endSize=12;html=1;rounded=0;exitX=0;exitY=0.75;exitDx=0;exitDy=0;entryX=1;entryY=0.25;entryDx=0;entryDy=0;" parent="1" source="1EWZOVvbNaI_VQ29JEXc-27" target="1EWZOVvbNaI_VQ29JEXc-19" edge="1">
          <mxGeometry width="160" relative="1" as="geometry">
            <mxPoint x="1508" y="349" as="sourcePoint" />
            <mxPoint x="1661" y="463" as="targetPoint" />
          </mxGeometry>
        </mxCell>
        <mxCell id="qFEmB10UOR8r2m2RjTvE-45" value="" style="endArrow=block;dashed=1;endFill=0;endSize=12;html=1;rounded=0;exitX=0;exitY=0.75;exitDx=0;exitDy=0;entryX=1;entryY=0.75;entryDx=0;entryDy=0;" parent="1" source="XiT6eA-BP94YaVYVDS5J-7" target="1EWZOVvbNaI_VQ29JEXc-19" edge="1">
          <mxGeometry width="160" relative="1" as="geometry">
            <mxPoint x="1677" y="549" as="sourcePoint" />
            <mxPoint x="1837" y="549" as="targetPoint" />
          </mxGeometry>
        </mxCell>
        <mxCell id="qFEmB10UOR8r2m2RjTvE-47" value="" style="endArrow=diamondThin;endFill=0;endSize=24;html=1;rounded=0;entryX=1;entryY=0.653;entryDx=0;entryDy=0;entryPerimeter=0;exitX=0;exitY=1;exitDx=0;exitDy=0;" parent="1" source="1EWZOVvbNaI_VQ29JEXc-3" target="1EWZOVvbNaI_VQ29JEXc-4" edge="1">
          <mxGeometry width="160" relative="1" as="geometry">
            <mxPoint x="302" y="522" as="sourcePoint" />
            <mxPoint x="558" y="466" as="targetPoint" />
          </mxGeometry>
        </mxCell>
      </root>
    </mxGraphModel>
  </diagram>
</mxfile>
